<?xml version="1.0" encoding="utf-8"?>
<!-- Generator: Adobe Illustrator 17.0.0, SVG Export Plug-In . SVG Version: 6.00 Build 0)  -->
<!DOCTYPE svg PUBLIC "-//W3C//DTD SVG 1.1//EN" "http://www.w3.org/Graphics/SVG/1.1/DTD/svg11.dtd">
<svg version="1.1" id="Layer_1" xmlns="http://www.w3.org/2000/svg" xmlns:xlink="http://www.w3.org/1999/xlink" x="0px" y="0px"
	 width="612px" height="710px" viewBox="0 6.25 612 710" enable-background="new 0 6.25 612 710" xml:space="preserve">
<g>
	<g>
		<g id="b">
			<ellipse fill="#A4C639" stroke="#FFFFFF" stroke-width="14.4" cx="306" cy="233.439" rx="189.429" ry="174.857"/>
			<path fill="#A4C639" stroke="#FFFFFF" stroke-width="14.4" d="M162.367,189.725h287.265c25.292,0,45.796,20.504,45.796,45.796
				v287.265c0,25.292-20.504,45.796-45.796,45.796H162.367c-25.292,0-45.796-20.504-45.796-45.796V235.521
				C116.571,210.228,137.075,189.725,162.367,189.725z"/>
		</g>
	</g>
	<g>
		<g id="a">
			<path fill="#A4C639" stroke="#FFFFFF" stroke-width="7.2" d="M181.886,12.206L181.886,12.206
				c-6.536,3.623-8.897,11.858-5.274,18.394l73.671,132.906c3.623,6.536,11.858,8.897,18.394,5.274l0,0
				c6.536-3.623,8.897-11.858,5.274-18.394L200.28,17.48C196.657,10.944,188.422,8.583,181.886,12.206z"/>
			<path id="c" fill="#A4C639" stroke="#FFFFFF" stroke-width="7.2" d="M553.714,233.439L553.714,233.439
				c-27.592,0-49.959,22.367-49.959,49.959v176.939c0,27.592,22.367,49.959,49.959,49.959l0,0c27.592,0,49.959-22.367,49.959-49.959
				V283.398C603.673,255.807,581.306,233.439,553.714,233.439z"/>
			<g transform="scale(-1,1)">
				<path id="c_1_" fill="#A4C639" stroke="#FFFFFF" stroke-width="7.2" d="M-389.656,435.357L-389.656,435.357
					c-27.592,0-49.959,22.367-49.959,49.959v176.939c0,27.592,22.367,49.959,49.959,49.959l0,0
					c27.592,0,49.959-22.367,49.959-49.959V485.317C-339.697,457.725-362.065,435.357-389.656,435.357z"/>
			</g>
		</g>
		<g id="a_1_">
			<path fill="#A4C639" stroke="#FFFFFF" stroke-width="7.2" d="M430.114,12.206L430.114,12.206
				c6.536,3.623,8.897,11.858,5.274,18.394l-73.671,132.906c-3.623,6.536-11.858,8.897-18.394,5.274l0,0
				c-6.536-3.623-8.897-11.858-5.274-18.394L411.72,17.48C415.343,10.944,423.578,8.583,430.114,12.206z"/>
			<path id="c_2_" fill="#A4C639" stroke="#FFFFFF" stroke-width="7.2" d="M58.286,233.439L58.286,233.439
				c27.592,0,49.959,22.367,49.959,49.959v176.939c0,27.592-22.367,49.959-49.959,49.959l0,0c-27.592,0-49.959-22.367-49.959-49.959
				V283.398C8.327,255.807,30.694,233.439,58.286,233.439z"/>
			<g>
				<path id="c_3_" fill="#A4C639" stroke="#FFFFFF" stroke-width="7.2" d="M235.224,435.357L235.224,435.357
					c27.592,0,49.959,22.367,49.959,49.959v176.939c0,27.592-22.367,49.959-49.959,49.959l0,0
					c-27.592,0-49.959-22.367-49.959-49.959V485.317C185.265,457.725,207.633,435.357,235.224,435.357z"/>
			</g>
		</g>
		<g id="b_1_">
			<ellipse fill="#A4C639" cx="306" cy="233.439" rx="189.429" ry="174.857"/>
			<path fill="#A4C639" d="M162.367,189.725h287.265c25.292,0,45.796,20.504,45.796,45.796v287.265
				c0,25.292-20.504,45.796-45.796,45.796H162.367c-25.292,0-45.796-20.504-45.796-45.796V235.521
				C116.571,210.228,137.075,189.725,162.367,189.725z"/>
		</g>
	</g>
	<g>
		<path fill="#FFFFFF" stroke="#FFFFFF" stroke-width="7.2" d="M108.245,240.725h395.51"/>
		<circle fill="#FFFFFF" stroke="#FFFFFF" stroke-width="7.2" cx="218.571" cy="148.092" r="8.327"/>
		<circle fill="#FFFFFF" stroke="#FFFFFF" stroke-width="7.2" cx="393.429" cy="148.092" r="8.327"/>
	</g>
</g>
</svg>
