<?xml version="1.0" encoding="utf-8"?>
<!-- Generator: Adobe Illustrator 17.0.0, SVG Export Plug-In . SVG Version: 6.00 Build 0)  -->
<!DOCTYPE svg PUBLIC "-//W3C//DTD SVG 1.1//EN" "http://www.w3.org/Graphics/SVG/1.1/DTD/svg11.dtd">
<svg version="1.1" id="Layer_1" xmlns="http://www.w3.org/2000/svg" xmlns:xlink="http://www.w3.org/1999/xlink" x="0px" y="0px"
	 width="332px" height="365.805px" viewBox="0 0 332 365.805" enable-background="new 0 0 332 365.805" xml:space="preserve">
<g>
	<polygon fill="#1673B6" points="44.345,325.279 17.275,21.659 314.725,21.659 287.628,325.23 165.818,359 	"/>
	<polygon fill="#35A9DB" points="166.001,333.189 264.428,305.9 287.585,46.485 166.001,46.485 	"/>
	<g>
		<polygon fill="#FFFFFF" points="166,156.485 215.276,156.485 218.678,118.353 166,118.353 166,81.114 166.129,81.114
			259.375,81.114 258.483,91.105 249.33,193.721 166,193.721 		"/>
		<polygon fill="#EBEBEB" points="166.223,253.192 166.061,253.239 124.588,242.039 121.937,212.342 101.786,212.342
			84.557,212.342 89.774,270.81 166.051,291.986 166.223,291.937 		"/>
		<polygon fill="#FFFFFF" points="212.111,192.144 207.626,242.014 166.094,253.225 166.094,291.967 242.434,270.81
			242.994,264.519 249.471,192.144 		"/>
		<polygon fill="#EBEBEB" points="166.129,81.114 166.129,104.242 166.129,118.261 166.129,118.353 76.301,118.353 76.301,118.353
			76.182,118.353 75.436,109.983 73.739,91.105 72.848,81.114 		"/>
		<polygon fill="#EBEBEB" points="166,156.489 166,179.618 166,193.635 166,193.726 125.172,193.726 125.172,193.726
			125.053,193.726 124.307,185.358 122.61,166.48 121.719,156.489 		"/>
	</g>
</g>
</svg>
