<?xml version="1.0" encoding="utf-8"?>
<!-- Generator: Adobe Illustrator 17.0.0, SVG Export Plug-In . SVG Version: 6.00 Build 0)  -->
<!DOCTYPE svg PUBLIC "-//W3C//DTD SVG 1.1//EN" "http://www.w3.org/Graphics/SVG/1.1/DTD/svg11.dtd">
<svg version="1.1" id="Layer_1" xmlns="http://www.w3.org/2000/svg" xmlns:xlink="http://www.w3.org/1999/xlink" x="0px" y="0px"
	 width="487px" height="532px" viewBox="0 0 487 532" enable-background="new 0 0 487 532" xml:space="preserve">
<title>HTML5 Logo</title>
<polygon fill="#E44D26" points="66.168,471.845 26.71,29.272 460.29,29.272 420.79,471.776 243.235,521 "/>
<polygon fill="#F16529" points="243.5,483.375 386.973,443.599 420.729,65.459 243.5,65.459 "/>
<polygon fill="#EBEBEB" points="243.5,229.603 171.674,229.603 166.713,174.02 243.5,174.02 243.5,119.74 243.312,119.74
	107.392,119.74 108.691,134.302 122.032,283.882 243.5,283.882 "/>
<polygon fill="#EBEBEB" points="243.5,370.574 243.262,370.637 182.81,354.314 178.946,311.023 149.571,311.023 124.458,311.023
	132.062,396.25 243.25,427.117 243.5,427.047 "/>
<polygon fill="#FFFFFF" points="243.312,229.603 243.312,283.882 310.152,283.882 303.851,354.279 243.312,370.619 243.312,427.09
	354.589,396.25 355.405,387.08 368.16,244.179 369.485,229.603 354.858,229.603 "/>
<polygon fill="#FFFFFF" points="243.312,119.74 243.312,153.452 243.312,173.887 243.312,174.02 374.249,174.02 374.249,174.02
	374.424,174.02 375.513,161.819 377.986,134.302 379.284,119.74 "/>
</svg>
