<?xml version="1.0" encoding="utf-8"?>
<!-- Generator: Adobe Illustrator 17.0.0, SVG Export Plug-In . SVG Version: 6.00 Build 0)  -->
<!DOCTYPE svg PUBLIC "-//W3C//DTD SVG 1.1//EN" "http://www.w3.org/Graphics/SVG/1.1/DTD/svg11.dtd">
<svg version="1.1" id="Layer_1" xmlns="http://www.w3.org/2000/svg" xmlns:xlink="http://www.w3.org/1999/xlink" x="0px" y="0px"
	 width="332px" height="362px" viewBox="0 0 332 362" enable-background="new 0 0 332 362" xml:space="preserve">
<g>
	<polygon fill="#E4A227" points="44.345,322.754 17.275,19.132 314.725,19.132 287.627,322.705 165.818,356.475 	"/>
	<polygon fill="#F0BF26" points="165.75,330.287 264.178,303 287.336,43.583 165.75,43.583 	"/>
	<polygon fill="#EBEBEB" points="165.693,252.926 165.531,252.973 124.059,241.773 121.406,212.075 101.256,212.075 84.027,212.075
		89.244,270.543 165.521,291.719 165.693,291.67 	"/>
	<polygon fill="#EBEBEB" points="170.709,193.437 170.709,156.2 124.855,156.2 130.232,97.758 170.812,96.677 170.709,57.954
		96.565,57.954 93.811,85.403 85.059,183.438 84.151,193.437 94.186,193.437 	"/>
	<polygon fill="#FFFFFF" points="170.457,96.729 170.62,96.683 211.291,99.132 214.742,137.579 234.893,137.579 252.123,137.579
		245.609,65.633 170.629,57.937 170.457,57.985 	"/>
	<polyline fill="#FFFFFF" points="248.284,96.843 245.093,57.954 166.49,57.954 166.49,82.106 166.49,96.746 166.49,96.843
		248.284,96.843 	"/>
	<polygon fill="#FFFFFF" points="165.564,156.218 165.564,193.454 211.418,193.454 207.096,241.748 165.564,252.959
		165.564,291.701 241.904,270.543 242.463,264.252 251.215,166.217 252.123,156.218 242.088,156.218 	"/>
	<path fill="#FFFFFF" d="M243.5,95.193"/>
</g>
</svg>
